<svg viewBox="0 0 64 64" xmlns="http://www.w3.org/2000/svg">
    <circle cx="32" cy="32" r="32"/>
    <path d="m29.17 22.17c.47-.39.86-.75 1.29-1.07.91-.67 1.93-1.04 3.07-.85 1.47.25 2.32 1.23 2.81 2.57.38 1.04.46 2.13.49 3.22.04 1.83-.15 3.65-.38 5.47-.04.28-.07.57-.06.88.15-.25.3-.5.46-.74.53-.83 1.12-1.62 1.97-2.16 1.11-.7 2.43-.69 3.34.03.73.58 1.06 1.38 1.18 2.27.16 1.19.08 2.38-.1 3.55-.45 2.84-.96 5.67-1.41 8.5-.2 1.29-.33 2.59-.48 3.88-.01.11 0 .23 0 .43.32-.22.59-.38.84-.57 1.45-1.09 2.73-2.37 3.88-3.77.15-.18.16-.33.07-.54-.95-2.35-.33-5.03 1.55-6.75 1.85-1.69 4.58-2.06 6.81-.94 2.38 1.2 3.71 3.83 3.26 6.48-.43 2.58-2.53 4.61-5.15 4.98-1.09.15-2.16.03-3.17-.42-.22-.1-.33-.05-.48.12-1.65 1.91-3.43 3.68-5.61 4.98-.74.44-1.53.77-2.4.85-1.84.15-3.18-.87-3.59-2.71-.26-1.18-.2-2.37-.02-3.54.46-3.03.97-6.05 1.46-9.08.03-.18.06-.36.03-.56-.13.28-.27.56-.39.85-1.11 2.58-2.2 5.17-3.34 7.73-.32.73-.73 1.43-1.2 2.07-.64.88-1.57 1.11-2.54.78-.87-.3-1.5-1.13-1.44-2.17.06-1.14.22-2.28.41-3.4.58-3.33 1.22-6.64 1.79-9.97.35-2.03.58-4.09.58-6.16 0-.37-.01-.75-.04-1.12-.01-.15-.08-.29-.13-.43-.14.08-.32.14-.41.26-.52.66-1.06 1.31-1.53 2.01-1.81 2.68-3.32 5.53-4.68 8.46-2.46 5.33-4.87 10.69-7.3 16.03-.11.24-.23.48-.38.71-.62.98-1.68 1.36-2.69.95-.92-.37-1.47-1.42-1.2-2.5.29-1.15.65-2.28 1.07-3.39 2.57-6.88 5.19-13.75 7.76-20.63 1.8-4.8 3.47-9.65 4.76-14.62.2-.77.36-1.56.54-2.34.02-.07.01-.15.03-.31-.48.42-.92.79-1.34 1.18-3.71 3.48-6.9 7.42-9.96 11.46-2.12 2.79-4.15 5.65-5.89 8.7-.43.75-.78 1.54-1.16 2.32-.05.11-.06.27-.02.39.36.97.14 1.89-.59 2.46-.76.6-1.79.61-2.62.01-.97-.7-1.22-1.69-1.04-2.81.21-1.33.82-2.51 1.45-3.68 1.95-3.55 4.3-6.84 6.73-10.06 2.13-2.82 4.34-5.57 6.72-8.17 1.9-2.08 3.84-4.12 6.18-5.72.6-.41 1.26-.78 1.94-1.03 1.85-.7 3.55.35 3.84 2.32.18 1.25 0 2.48-.23 3.7-.62 3.23-1.62 6.35-2.64 9.47-.22.69-.46 1.37-.71 2.13zm24.95 18.85c0-1.3-1.05-2.34-2.35-2.34s-2.34 1.05-2.33 2.35c0 1.3 1.04 2.33 2.35 2.34 1.29 0 2.34-1.05 2.33-2.35z"
          fill="#fff"/>
    <path d="m51.84 33.33c-1.01 0-2.01 0-3.02 0-1.18 0-2.09-.91-2.09-2.06 0-1.13.92-2.04 2.08-2.05h6.09c1.04 0 1.93.79 2.03 1.78.12 1.11-.55 2.06-1.61 2.29-.19.04-.38.04-.57.04-.97 0-1.95 0-2.92 0z"
          fill="#fff"/>
    <path d="m54.12 41.02c0 1.3-1.04 2.35-2.33 2.35-1.3 0-2.35-1.04-2.35-2.34s1.04-2.34 2.33-2.35c1.29 0 2.34 1.04 2.35 2.34z"
          fill="#d00b0a"/>
</svg>